<svg width="1195" height="336" viewBox="0 0 1195 336" fill="none" xmlns="http://www.w3.org/2000/svg">
<path fill-rule="evenodd" clip-rule="evenodd" d="M0 168C0 75.4856 75.2613 0.40625 168 0.40625C260.739 0.40625 336 75.4856 336 168C336 260.514 260.739 335.594 168 335.594C75.2613 335.594 0 260.514 0 168ZM266.7 148.538C269.748 150.295 271.916 151.173 275.439 151.173C283.703 151.173 291.155 144.618 291.155 135.427C291.155 127.386 287.7 123.196 282.416 120.155C244.548 98.1242 192.726 87.8524 143.274 87.8524C114.213 87.8524 87.5226 91.1637 63.6774 98.1242C57.5806 99.8813 51.8903 105.085 51.8903 114.275C51.8903 123.263 58.7323 130.224 67.6742 130.224C70.3859 130.224 72.9563 129.472 75.1496 128.83C75.5863 128.702 76.008 128.579 76.4129 128.467C132.232 112.924 218.468 119.817 266.7 148.538ZM247.009 200.314C249.148 201.474 251.351 202.668 254.439 202.668C261.823 202.668 267.513 196.788 267.581 189.49C267.581 183.611 265.413 179.421 259.926 176.177C226.461 156.309 183.987 145.429 140.023 145.429C111.842 145.429 92.6032 149.348 73.771 154.62C66.7935 156.579 63.271 161.377 63.271 168.608C63.271 175.839 69.1645 181.718 76.4129 181.718C78.655 181.718 80.2009 181.243 82.1556 180.642C82.8584 180.426 83.6142 180.194 84.4742 179.961C140.632 164.756 203.768 174.825 246.106 199.829C246.408 199.988 246.708 200.151 247.009 200.314ZM228.968 244.566C231.61 246.12 233.371 246.999 236.216 246.999C241.703 246.999 246.513 242.741 246.513 236.592C246.513 230.442 244.074 228.077 239.942 225.441C191.574 196.586 134.874 195.504 79.3935 207.736C74.3129 208.817 70.1806 212.129 70.1806 219.089C70.1806 224.563 74.3129 229.766 80.8839 229.766C82.4265 229.766 84.888 229.1 87.1533 228.486C87.7729 228.318 88.3778 228.154 88.9452 228.009C137.516 218.075 186.697 219.157 228.968 244.566Z" fill="#1ED760"/>
<path d="M535.3 96V242.58H505.9V147.24L466.63 242.58H444.37L404.89 147.24V242.58H375.49V96H408.88L455.5 204.99L502.12 96H535.3Z" fill="#1ED760"/>
<path d="M675.667 126.24L603.637 297.6H572.347L597.547 239.64L550.927 126.24H583.897L613.927 207.51L644.377 126.24H675.667Z" fill="#1ED760"/>
<path d="M736.035 244.47C726.515 244.47 717.975 242.79 710.415 239.43C702.855 235.93 696.835 231.24 692.355 225.36C688.015 219.48 685.635 212.97 685.215 205.83H714.825C715.385 210.31 717.555 214.02 721.335 216.96C725.255 219.9 730.085 221.37 735.825 221.37C741.425 221.37 745.765 220.25 748.845 218.01C752.065 215.77 753.675 212.9 753.675 209.4C753.675 205.62 751.715 202.82 747.795 201C744.015 199.04 737.925 196.94 729.525 194.7C720.845 192.6 713.705 190.43 708.105 188.19C702.645 185.95 697.885 182.52 693.825 177.9C689.905 173.28 687.945 167.05 687.945 159.21C687.945 152.77 689.765 146.89 693.405 141.57C697.185 136.25 702.505 132.05 709.365 128.97C716.365 125.89 724.555 124.35 733.935 124.35C747.795 124.35 758.855 127.85 767.115 134.85C775.375 141.71 779.925 151.02 780.765 162.78H752.625C752.205 158.16 750.245 154.52 746.745 151.86C743.385 149.06 738.835 147.66 733.095 147.66C727.775 147.66 723.645 148.64 720.705 150.6C717.905 152.56 716.505 155.29 716.505 158.79C716.505 162.71 718.465 165.72 722.385 167.82C726.305 169.78 732.395 171.81 740.655 173.91C749.055 176.01 755.985 178.18 761.445 180.42C766.905 182.66 771.595 186.16 775.515 190.92C779.575 195.54 781.675 201.7 781.815 209.4C781.815 216.12 779.925 222.14 776.145 227.46C772.505 232.78 767.185 236.98 760.185 240.06C753.325 243 745.275 244.47 736.035 244.47Z" fill="#1ED760"/>
<path d="M835.349 143.04C839.129 137.72 844.309 133.31 850.889 129.81C857.609 126.17 865.239 124.35 873.779 124.35C883.719 124.35 892.679 126.8 900.659 131.7C908.779 136.6 915.149 143.6 919.769 152.7C924.529 161.66 926.909 172.09 926.909 183.99C926.909 195.89 924.529 206.46 919.769 215.7C915.149 224.8 908.779 231.87 900.659 236.91C892.679 241.95 883.719 244.47 873.779 244.47C865.239 244.47 857.679 242.72 851.099 239.22C844.659 235.72 839.409 231.31 835.349 225.99V298.02H805.949V126.24H835.349V143.04ZM896.879 183.99C896.879 176.99 895.409 170.97 892.469 165.93C889.669 160.75 885.889 156.83 881.129 154.17C876.509 151.51 871.469 150.18 866.009 150.18C860.689 150.18 855.649 151.58 850.889 154.38C846.269 157.04 842.489 160.96 839.549 166.14C836.749 171.32 835.349 177.41 835.349 184.41C835.349 191.41 836.749 197.5 839.549 202.68C842.489 207.86 846.269 211.85 850.889 214.65C855.649 217.31 860.689 218.64 866.009 218.64C871.469 218.64 876.509 217.24 881.129 214.44C885.889 211.64 889.669 207.65 892.469 202.47C895.409 197.29 896.879 191.13 896.879 183.99Z" fill="#1ED760"/>
<path d="M999.933 244.47C988.733 244.47 978.653 242.02 969.693 237.12C960.733 232.08 953.663 225.01 948.483 215.91C943.443 206.81 940.923 196.31 940.923 184.41C940.923 172.51 943.513 162.01 948.693 152.91C954.013 143.81 961.223 136.81 970.323 131.91C979.423 126.87 989.573 124.35 1000.77 124.35C1011.97 124.35 1022.12 126.87 1031.22 131.91C1040.32 136.81 1047.46 143.81 1052.64 152.91C1057.96 162.01 1060.62 172.51 1060.62 184.41C1060.62 196.31 1057.89 206.81 1052.43 215.91C1047.11 225.01 1039.83 232.08 1030.59 237.12C1021.49 242.02 1011.27 244.47 999.933 244.47ZM999.933 218.85C1005.25 218.85 1010.22 217.59 1014.84 215.07C1019.6 212.41 1023.38 208.49 1026.18 203.31C1028.98 198.13 1030.38 191.83 1030.38 184.41C1030.38 173.35 1027.44 164.88 1021.56 159C1015.82 152.98 1008.75 149.97 1000.35 149.97C991.953 149.97 984.883 152.98 979.143 159C973.543 164.88 970.743 173.35 970.743 184.41C970.743 195.47 973.473 204.01 978.933 210.03C984.533 215.91 991.533 218.85 999.933 218.85Z" fill="#1ED760"/>
<path d="M1116.42 150.39V206.67C1116.42 210.59 1117.33 213.46 1119.15 215.28C1121.11 216.96 1124.33 217.8 1128.81 217.8H1142.46V242.58H1123.98C1099.2 242.58 1086.81 230.54 1086.81 206.46V150.39H1072.95V126.24H1086.81V97.47H1116.42V126.24H1142.46V150.39H1116.42Z" fill="#1ED760"/>
<path d="M1176.63 244.05C1171.31 244.05 1166.9 242.44 1163.4 239.22C1160.04 235.86 1158.36 231.73 1158.36 226.83C1158.36 221.93 1160.04 217.87 1163.4 214.65C1166.9 211.29 1171.31 209.61 1176.63 209.61C1181.81 209.61 1186.08 211.29 1189.44 214.65C1192.8 217.87 1194.48 221.93 1194.48 226.83C1194.48 231.73 1192.8 235.86 1189.44 239.22C1186.08 242.44 1181.81 244.05 1176.63 244.05Z" fill="#1ED760"/>
</svg>
