<svg width="336" height="336" viewBox="0 0 336 336" fill="none" xmlns="http://www.w3.org/2000/svg">
<path fill-rule="evenodd" clip-rule="evenodd" d="M0 168C0 75.4856 75.2613 0.40625 168 0.40625C260.739 0.40625 336 75.4856 336 168C336 260.514 260.739 335.594 168 335.594C75.2613 335.594 0 260.514 0 168ZM266.7 148.538C269.748 150.295 271.916 151.173 275.439 151.173C283.703 151.173 291.155 144.618 291.155 135.427C291.155 127.386 287.7 123.196 282.416 120.155C244.548 98.1242 192.726 87.8524 143.274 87.8524C114.213 87.8524 87.5226 91.1637 63.6774 98.1242C57.5806 99.8813 51.8903 105.085 51.8903 114.275C51.8903 123.263 58.7323 130.224 67.6742 130.224C70.3859 130.224 72.9563 129.472 75.1496 128.83C75.5863 128.702 76.008 128.579 76.4129 128.467C132.232 112.924 218.468 119.817 266.7 148.538ZM247.009 200.314C249.148 201.474 251.351 202.668 254.439 202.668C261.823 202.668 267.513 196.788 267.581 189.49C267.581 183.611 265.413 179.421 259.926 176.177C226.461 156.309 183.987 145.429 140.023 145.429C111.842 145.429 92.6032 149.348 73.771 154.62C66.7935 156.579 63.271 161.377 63.271 168.608C63.271 175.839 69.1645 181.718 76.4129 181.718C78.655 181.718 80.2009 181.243 82.1556 180.642C82.8584 180.426 83.6142 180.194 84.4742 179.961C140.632 164.756 203.768 174.825 246.106 199.829C246.408 199.988 246.708 200.151 247.009 200.314ZM228.968 244.566C231.61 246.12 233.371 246.999 236.216 246.999C241.703 246.999 246.513 242.741 246.513 236.592C246.513 230.442 244.074 228.077 239.942 225.441C191.574 196.586 134.874 195.504 79.3935 207.736C74.3129 208.817 70.1806 212.129 70.1806 219.089C70.1806 224.563 74.3129 229.766 80.8839 229.766C82.4265 229.766 84.888 229.1 87.1533 228.486C87.7729 228.318 88.3778 228.154 88.9452 228.009C137.516 218.075 186.697 219.157 228.968 244.566Z" fill="#1ED760"/>
</svg>
